<svg viewBox="0 0 280 116" xmlns="http://www.w3.org/2000/svg"><path d="M58.2 86.8h-17l13.5-15.6a148 148 0 0018-23.6l-9.4 4.6c2.4-5 3.3-9.4 3.3-14.6 0-8.2-3-15.7-8.3-21.3l6-4.7A34.7 34.7 0 0034.7 1.1l-4.5 5.5C13.6 8.3 4 19.7.7 39.6l2.6.4 4.3-5.3L23 38.3c2.1-13 6.3-19.7 16.2-19.7 4.2 0 8 1.4 10.6 4l-5.8 4.5c2.6 2.6 4.2 6.1 4.2 10.2 0 6-3.4 11.7-15.5 25.9l-7.1 8.3 9-4.5L11 94.2v10.4h27.8L32 111h37V93H51.6l6.7-6.2zM194.7 77.7l-4.5-30.4-8 5.8-5.6-38.4L185 8 184 0h-9.2L163 25.4l-8.7 7-20.3 43.4-8.9-19.6 8.3-6.6-16.7-36.8-6.5 7.7-5.8-12.8h-9.1l-5.8 36.8L96 37l-7.6 48.4-8.5 6.8-2.7 17.5h19l5-34.2 8.4-6.8 3-21.1 6.2 13.3-8.3 6.6 12.8 28.3 8-5.8 6.3 13.8h8.7l17.2-37.3-7.8 5.7 8.6-18.3 1.4 11.3 8-5.8L178 92l-8 7 1.6 11.4h19l-4-25.8 8-7zM279.3 72.5c-1.2-10.2-7.6-17.3-21.2-22.6l-2.4 2.7c-3-1.1-6-2.2-9.4-3a59.7 59.7 0 01-15.3-5.7l-6.8 4.8c-3.2-2-5-4.6-5-8.4 0-7.2 7-12.2 15.8-12.2a26 26 0 0113 3.8l7-4.8c2.5 1.6 5.2 3.5 8 6.1l12.7-13.6c-1.5-1.5-3-2.9-4.7-4l-6.8 4.7c-7.5-5.6-16.6-9-26-9.5l4.9-4.2c-1-.2-2.4-.2-3.4-.2-19.4 0-35.6 11.7-35.6 30.6l.1 2.9-5 4.3c.7 6.5 3.3 11.9 8.5 16.2l6.8-4.7c4.5 4 11.3 7 19.9 9.4l7.8 2.3 2.5-2.8c9 3.2 14.9 7.1 14.9 13.4 0 7.5-8 13.6-17.8 13.6-5.7 0-12-1.9-17-5l-2.5 2.8a22.8 22.8 0 01-6.2-5.3l-14 12.4c2 2.6 4.6 5 7.5 7l11.9-13-9.4 10.4a52 52 0 0021.3 8.2l-8 6.4c2.6.3 5.2.4 7.8.4 21.7 0 38.4-11.4 38.4-32.4 0-1.6-.1-3-.3-4.7l8-6.3z" /></svg>